<?xml version="1.0" encoding="utf-8"?>
<!-- Generator: Adobe Illustrator 25.2.3, SVG Export Plug-In . SVG Version: 6.00 Build 0)  -->
<svg version="1.1" xmlns="http://www.w3.org/2000/svg" xmlns:xlink="http://www.w3.org/1999/xlink" x="0px" y="0px"
	 viewBox="0 0 120 120" style="enable-background:new 0 0 120 120;" xml:space="preserve">
<style type="text/css">
	.st0{fill:#AC312B;}
	.st1{fill:#0D3D61;}
	.st2{fill:#E49C2D;}
	.st3{fill:#67893D;}
	.st4{fill:none;stroke:#000000;stroke-miterlimit:10;}
</style>
<g id="Layer_1">
	<g id="XMLID_1_">
		<g>
			<path class="st0" d="M119,60H60V1C92.58,1,119,27.42,119,60z"/>
			<path class="st1" d="M60,60h59c0,32.14-25.71,58.28-57.68,58.98L60,60z"/>
			<path class="st2" d="M60,60l1.32,58.98C60.88,119,60.44,119,60,119C27.42,119,1,92.58,1,60H60z"/>
			<path class="st3" d="M60,1v59H1C1,27.42,27.42,1,60,1z"/>
		</g>
		<g>
			<path class="st4" d="M119,60c0,32.14-25.71,58.28-57.68,58.98C60.88,119,60.44,119,60,119C27.42,119,1,92.58,1,60S27.42,1,60,1
				S119,27.42,119,60z"/>
			<polyline class="st4" points="60,60 61.32,118.98 61.32,118.99 			"/>
			<line class="st4" x1="60" y1="60" x2="60" y2="1"/>
			<line class="st4" x1="60" y1="60" x2="119" y2="60"/>
			<line class="st4" x1="60" y1="60" x2="1" y2="60"/>
		</g>
	</g>
</g>
<g id="Layer_2">
</g>
</svg>
